<?xml version="1.0" standalone="no"?>
<!DOCTYPE svg PUBLIC "-//W3C//DTD SVG 20010904//EN"
 "http://www.w3.org/TR/2001/REC-SVG-20010904/DTD/svg10.dtd">
<svg version="1.0" xmlns="http://www.w3.org/2000/svg"
 width="36.000000pt" height="36.000000pt" viewBox="0 0 36.000000 36.000000"
 preserveAspectRatio="xMidYMid meet">

<g transform="translate(0.000000,36.000000) scale(0.100000,-0.100000)"
fill="#000000" stroke="none">
<path d="M24 337 c-2 -7 -3 -78 -2 -157 l3 -145 155 0 155 0 0 155 0 155 -153
3 c-119 2 -154 0 -158 -11z m130 -104 c17 -49 26 -50 26 -5 l0 42 43 0 c24 0
48 -5 55 -12 16 -16 15 -48 -3 -68 -13 -14 -12 -20 11 -53 23 -35 24 -37 5
-37 -11 0 -28 14 -41 35 -12 19 -26 35 -31 35 -5 0 -9 -16 -9 -35 0 -28 -4
-35 -19 -35 -10 0 -21 7 -25 15 -7 20 -65 20 -72 0 -6 -15 -34 -21 -34 -7 0
22 64 162 73 159 6 -2 15 -17 21 -34z"/>
<path d="M210 225 c0 -18 5 -25 19 -25 28 0 37 21 16 37 -27 19 -35 16 -35
-12z"/>
<path d="M118 185 c-4 -20 -1 -25 14 -25 14 0 18 5 14 16 -3 9 -6 20 -6 25 0
20 -18 7 -22 -16z"/>
</g>
</svg>
