<svg xmlns="http://www.w3.org/2000/svg" version="1.1" xmlns:xlink="http://www.w3.org/1999/xlink" xmlns:svgjs="http://svgjs.dev/svgjs" viewBox="0 0 2.231556397404266 1.7258684405716334"><g transform="matrix(1,0,0,1,0.16327087448338284,0.5005975660882507)"><rect width="2.231556397404266" height="2.231556397404266" x="-0.16327087448338284" y="-0.7534415445045669" fill="#67a97b"></rect><g><path d=" M 0.8535 -2.220446049250313e-16 Q 0.8475 0.06749999999999978 0.8452500000000001 0.13049999999999984 Q 0.843 0.19349999999999978 0.843 0.22799999999999987 Q 0.843 0.2609999999999998 0.8445 0.2909999999999998 Q 0.846 0.32099999999999984 0.8475 0.34199999999999986 L 0.8130000000000001 0.34199999999999986 Q 0.7935 0.22499999999999987 0.759 0.15824999999999978 Q 0.7245 0.0914999999999998 0.67425 0.06299999999999983 Q 0.624 0.03449999999999975 0.555 0.03449999999999975 L 0.5055000000000001 0.03449999999999975 Q 0.462 0.03449999999999975 0.4395 0.041999999999999815 Q 0.417 0.04949999999999988 0.40950000000000003 0.07199999999999984 Q 0.402 0.0944999999999998 0.402 0.1409999999999998 L 0.402 0.8939999999999998 Q 0.402 0.9524999999999998 0.41400000000000003 0.9809999999999999 Q 0.426 1.0094999999999998 0.4605 1.0184999999999997 Q 0.495 1.0274999999999999 0.5625 1.029 L 0.5625 1.0619999999999998 Q 0.516 1.0604999999999998 0.4425 1.059 Q 0.369 1.0574999999999999 0.28800000000000003 1.0574999999999999 Q 0.2235 1.0574999999999999 0.162 1.059 Q 0.1005 1.0604999999999998 0.051000000000000004 1.0619999999999998 L 0.051000000000000004 1.0319999999999998 Q 0.099 1.029 0.123 1.0199999999999998 Q 0.147 1.011 0.15525 0.9839999999999999 Q 0.1635 0.9569999999999999 0.1635 0.9029999999999998 L 0.1635 0.1589999999999998 Q 0.1635 0.10349999999999981 0.15525 0.07724999999999982 Q 0.147 0.05099999999999971 0.12225 0.04124999999999979 Q 0.0975 0.03149999999999986 0.051000000000000004 0.029999999999999805 L 0.051000000000000004 -2.220446049250313e-16 Q 0.132 0.0014999999999998348 0.2265 0.0029999999999998916 Q 0.321 0.0044999999999997264 0.405 0.0044999999999997264 Q 0.489 0.0044999999999997264 0.54 0.0044999999999997264 Q 0.609 0.0044999999999997264 0.69675 0.00374999999999992 Q 0.7845 0.0029999999999998916 0.8535 -2.220446049250313e-16 M 0.63 0.5189999999999998 Q 0.63 0.5189999999999998 0.63 0.5339999999999998 Q 0.63 0.5489999999999998 0.63 0.5489999999999998 L 0.357 0.5489999999999998 Q 0.357 0.5489999999999998 0.357 0.5339999999999998 Q 0.357 0.5189999999999998 0.357 0.5189999999999998 L 0.63 0.5189999999999998 M 0.6675 0.32099999999999984 Q 0.6615 0.40649999999999986 0.66225 0.4514999999999998 Q 0.663 0.49649999999999983 0.663 0.5339999999999998 Q 0.663 0.5714999999999999 0.6645 0.6164999999999998 Q 0.666 0.6614999999999998 0.672 0.7469999999999999 L 0.6375000000000001 0.7469999999999999 Q 0.6285000000000001 0.6944999999999999 0.609 0.6494999999999997 Q 0.5895 0.6044999999999998 0.552 0.5767499999999999 Q 0.5145 0.5489999999999998 0.4545 0.5489999999999998 L 0.4545 0.5189999999999998 Q 0.5145 0.5189999999999998 0.5505 0.48599999999999977 Q 0.5865 0.45299999999999985 0.6052500000000001 0.4072499999999998 Q 0.624 0.3614999999999998 0.633 0.32099999999999984 L 0.6675 0.32099999999999984 M 1.865969970703125 -2.220446049250313e-16 Q 1.859969970703125 0.07649999999999979 1.857719970703125 0.1469999999999998 Q 1.855469970703125 0.2174999999999998 1.855469970703125 0.2549999999999998 Q 1.855469970703125 0.2879999999999998 1.856969970703125 0.31799999999999984 Q 1.858469970703125 0.34799999999999986 1.859969970703125 0.3689999999999998 L 1.825469970703125 0.3689999999999998 Q 1.801469970703125 0.24299999999999977 1.764719970703125 0.16949999999999976 Q 1.727969970703125 0.09599999999999986 1.6769699707031251 0.06524999999999981 Q 1.625969970703125 0.03449999999999975 1.556969970703125 0.03449999999999975 L 1.522469970703125 0.03449999999999975 L 1.522469970703125 0.8909999999999998 Q 1.522469970703125 0.9509999999999998 1.535219970703125 0.9809999999999999 Q 1.5479699707031251 1.011 1.5824699707031251 1.0207499999999998 Q 1.616969970703125 1.0304999999999997 1.682969970703125 1.0319999999999998 L 1.682969970703125 1.0619999999999998 Q 1.636469970703125 1.0604999999999998 1.5592199707031251 1.059 Q 1.4819699707031249 1.0574999999999999 1.397969970703125 1.0574999999999999 Q 1.315469970703125 1.0574999999999999 1.241969970703125 1.059 Q 1.168469970703125 1.0604999999999998 1.123469970703125 1.0619999999999998 L 1.123469970703125 1.0319999999999998 Q 1.190969970703125 1.0304999999999997 1.225469970703125 1.0207499999999998 Q 1.2599699707031249 1.011 1.271969970703125 0.9809999999999999 Q 1.283969970703125 0.9509999999999998 1.283969970703125 0.8909999999999998 L 1.283969970703125 0.03449999999999975 L 1.250969970703125 0.03449999999999975 Q 1.181969970703125 0.03449999999999975 1.130969970703125 0.06524999999999981 Q 1.079969970703125 0.09599999999999986 1.0439699707031251 0.16874999999999984 Q 1.007969970703125 0.24149999999999983 0.980969970703125 0.3689999999999998 L 0.946469970703125 0.3689999999999998 Q 0.949469970703125 0.34799999999999986 0.950219970703125 0.31799999999999984 Q 0.9509699707031251 0.2879999999999998 0.9509699707031251 0.2549999999999998 Q 0.9509699707031251 0.2174999999999998 0.948719970703125 0.1469999999999998 Q 0.946469970703125 0.07649999999999979 0.940469970703125 -2.220446049250313e-16 Q 1.009469970703125 0.0014999999999998348 1.091219970703125 0.0029999999999998916 Q 1.1729699707031251 0.0044999999999997264 1.255469970703125 0.0044999999999997264 Q 1.337969970703125 0.0044999999999997264 1.403969970703125 0.0044999999999997264 Q 1.471469970703125 0.0044999999999997264 1.553219970703125 0.0044999999999997264 Q 1.6349699707031249 0.0044999999999997264 1.717469970703125 0.0029999999999998916 Q 1.799969970703125 0.0014999999999998348 1.865969970703125 -2.220446049250313e-16" fill="#ffffff" fill-rule="nonzero"></path></g><g></g><g clip-path="url(&quot;#SvgjsClipPath1002&quot;)"><g clip-path="url(&quot;#aa5785856-aadb-4fb6-bf02-01ee3b187ff50e31347f-e393-4e2c-a687-57a6addead7c&quot;)"><path d=" M 0.9541759246772222 -0.2101982264858009 L 0.950002174743362 -0.2101982264858009 L 0.950002174743362 -0.26825292922962446 C 0.9465750223192224 -0.2726515579314729 0.926030098075824 -0.2995110779799788 0.926030098075824 -0.3120413229322791 C 0.926030098075824 -0.32598380654754505 0.9377237940112084 -0.3373266916048679 0.9520890497102921 -0.3373266916048679 C 0.9664543054093758 -0.3373266916048679 0.9781480013447601 -0.32598380654754505 0.9781480013447601 -0.3120413229322791 C 0.9781480013447601 -0.2995110779799788 0.9576030771013618 -0.2726515579314729 0.9541759246772222 -0.26825292922962446 Z M 0.9520890497102921 -0.3331529416710076 C 0.9400265525954072 -0.3331529416710076 0.9302038480096844 -0.3236810479633463 0.9302038480096844 -0.3120413229322791 C 0.9302038480096844 -0.3028752643490817 0.9447310164217195 -0.2819885243783413 0.9520890497102921 -0.27236371310844804 C 0.9594470829988647 -0.2819885243783413 0.9739742514108999 -0.3028752643490817 0.9739742514108999 -0.3120413229322791 C 0.9739742514108999 -0.3236810479633463 0.9641605419758966 -0.3331529416710076 0.9520890497102921 -0.3331529416710076" fill="#adc2b7" transform="matrix(1,0,0,1,0,0)" fill-rule="nonzero"></path></g><g clip-path="url(&quot;#aa5785856-aadb-4fb6-bf02-01ee3b187ff50e31347f-e393-4e2c-a687-57a6addead7c&quot;)"><path d=" M 0.8469537281004672 -0.10759054222816294 C 0.8410529092284579 -0.10759054222816294 0.83512510490429 -0.10830115913500551 0.8292422763337197 -0.10974937840084928 C 0.8100860327243469 -0.11440772453280898 0.793599090728971 -0.1265558270368704 0.7834749494727692 -0.14347219844835385 C 0.7664291388592667 -0.17173496200910587 0.7754512750309517 -0.20866005571276186 0.8035791113309108 -0.2257868226827402 C 0.8144665401286794 -0.23245443608012967 0.8275723908294518 -0.2344794439139944 0.8399644959913952 -0.23140879188244423 C 0.8524202346283778 -0.2283850369276301 0.8631406127982264 -0.22048734599657777 0.8697204545715886 -0.20948760957895832 C 0.8808384608609233 -0.19104755060392914 0.874955632290353 -0.16694954182631783 0.8565965296717996 -0.15576856948194648 C 0.8559590887170756 -0.1553419781492857 0.8551390097102043 -0.1552994447988809 0.8544608573951187 -0.15565780296246146 C 0.8537827050800331 -0.15601616112604202 0.8533557905889728 -0.15671764717774261 0.8533490749504624 -0.1574846322076227 C 0.853342359311952 -0.15825161723750283 0.8537569250173918 -0.1589604711993884 0.8544286983483937 -0.15933064916687895 C 0.8708505888105053 -0.16939882367807654 0.8760826370878548 -0.19082492468186585 0.8661493797359366 -0.20732877340627198 C 0.8601389931139964 -0.21737545480375509 0.8503500511729498 -0.22459159969045178 0.8389750294122472 -0.22736097405865735 C 0.8276581319826659 -0.23016849177315069 0.8156879713639786 -0.22831820435753877 0.8057469426543167 -0.22222474299780776 C 0.7795710540604948 -0.2062853359228069 0.7711875735898961 -0.17192386017421593 0.7870550194591408 -0.14562203947032068 C 0.7966046380003204 -0.1296559023779218 0.8121628316401608 -0.11819060575268642 0.8302407380635871 -0.11379719622463616 C 0.8482206012261266 -0.10933386729530625 0.8672395571990461 -0.11227307211170395 0.8830332776364878 -0.12195579792724662 C 0.8840090279553008 -0.12244328904190654 0.8851955696739593 -0.12210088958858739 0.8857615839542987 -0.12116849262055931 C 0.8863275982346381 -0.12023609565253118 0.8860838473922987 -0.11902543295689336 0.8852011089598936 -0.11838472309159462 C 0.8736878800340664 -0.11133633599888937 0.8604531387088443 -0.10760122555903368 0.8469537281004673 -0.10759054222816294 M 1.0580519251863134 -0.10759054222816294 C 1.0445525145779364 -0.10760122555903368 1.0313177732527143 -0.11133633599888937 1.019804544326887 -0.11838472309159462 C 1.0188184192574916 -0.11898335318577818 1.0185042925054724 -0.12026805107362187 1.0191029225849615 -0.12125417615193773 C 1.0197015526644506 -0.12224030123025359 1.0209862505476135 -0.1225544280014163 1.0219723756348496 -0.12195579793662156 C 1.0377626081505091 -0.11227261317363754 1.0567790139264646 -0.10933330164691774 1.074755920072474 -0.11379719622463616 C 1.0928371575950968 -0.11818842802386784 1.1083989323578036 -0.1296539755270865 1.11795063382764 -0.14562203947032068 C 1.1338180796968846 -0.17192386017421593 1.1254256040755664 -0.20628533592280687 1.0992497154817444 -0.22222474299780773 C 1.0893138891258782 -0.22831428941174137 1.0773508335348403 -0.23016448029540404 1.0660396190252528 -0.2273609740586573 C 1.0546601098038182 -0.2245912938037312 1.044865636970317 -0.21737584855060285 1.0388472784001244 -0.20732877340627195 C 1.0289192562307767 -0.1908241276593657 1.0341503479587517 -0.1694019438830997 1.0505679597876674 -0.15933064916687895 C 1.0512042640510775 -0.1589434034064426 1.0515856402804373 -0.1582461092814367 1.0515684277386987 -0.15750143074474016 C 1.0515512151969604 -0.1567567522080436 1.051138028878731 -0.15607782364662018 1.0504845120738788 -0.15572039088317316 C 1.0498309952690266 -0.1553629581197262 1.0490364327285469 -0.15538132369499053 1.0484001284766777 -0.1557685694743902 C 1.0300410258457082 -0.16694954182631783 1.024158197275138 -0.19104755060392908 1.0352762035644725 -0.2094876095789583 C 1.0418611770518669 -0.22048650257993224 1.0525838293034786 -0.22838348158784338 1.0650411572953855 -0.23140879188244418 C 1.0774300746643946 -0.23448514552462862 1.0905353759764527 -0.23245972185498565 1.1014175468051504 -0.2257868226827402 C 1.129554378255829 -0.20866005571276186 1.1385675192767946 -0.17173496200910587 1.1215307038140114 -0.14347219844835385 C 1.1114055069150957 -0.12655118435179477 1.094915060152977 -0.11439964665127497 1.0757543818023414 -0.10974038325012975 C 1.0699611909136062 -0.10831611082052822 1.0640176270277246 -0.10759430605999687 1.0580519251863136 -0.10759054222816294 M 1.0008157811579668 -0.21726841495134866 C 0.9985400080259266 -0.21726841495134866 0.9962552397431669 -0.21754726462365398 0.9939884617618462 -0.21810496396826462 C 0.9815489194921179 -0.22121698740584853 0.9739626986943307 -0.2337963646587769 0.9770146123540999 -0.24625079056966281 C 0.9772878460051652 -0.2473685645967482 0.9784154805284819 -0.24805319984304758 0.9795332545555673 -0.24777996619198228 C 0.9806510285826526 -0.24750673254091698 0.9813356638289521 -0.24637909801760027 0.9810624301778867 -0.24526132399051492 C 0.9785588168317505 -0.23503985516363723 0.9847800662911692 -0.22471531390960198 0.9949869234917137 -0.2221527817920515 C 1.0012214240666435 -0.22060418184525674 1.007816371338774 -0.22161480244884454 1.0133010503566695 -0.22495926881654374 C 1.0188481985199782 -0.2283020923227429 1.0228237299509761 -0.23372916253213283 1.0243381002895284 -0.24002614627175053 C 1.0283949132640349 -0.25664018965071583 1.018248383252409 -0.2734701166469498 1.001724291380639 -0.27754491992289526 C 0.9916856996754391 -0.2800510047497375 0.9810614337203699 -0.2784277180027141 0.9722291921713119 -0.2730383494124125 C 0.9632896440048835 -0.26764924835118675 0.9568839692710536 -0.2589009824021019 0.9544457791988081 -0.24875144246969114 C 0.9541953070759224 -0.24776102349608808 0.9532698172561325 -0.24709345706869862 0.9522509624232436 -0.2471682959430545 C 0.951235381023167 -0.2470979932395354 0.9503150381002164 -0.24776457906027327 0.9500651407983987 -0.24875144246969116 C 0.9476269507261532 -0.2589009824021019 0.9412212759923233 -0.26764924835118675 0.932281727825895 -0.27303834941241245 C 0.9233675334628443 -0.2784354398441284 0.9128881828745959 -0.28003657667220405 0.9027776334658483 -0.27754491992289526 C 0.8862535415940782 -0.2734701166469498 0.8761070115824524 -0.25664018965071583 0.8801638245569589 -0.24002614627175053 C 0.8817199856314369 -0.23368456501448442 0.8856418713451504 -0.22833245033636618 0.8912098696405373 -0.22495926881654377 C 0.8966941977287267 -0.2216138406532047 0.903289542745723 -0.22060315909853728 0.9095239965054931 -0.22215278179205156 C 0.919724530348061 -0.22472385191546335 0.9259415999007865 -0.23504145636052257 0.92344848981932 -0.24526132399051492 C 0.9231752561682547 -0.24637909801760033 0.9238598914145542 -0.24750673254091704 0.9249776654416395 -0.24777996619198234 C 0.9260954394687249 -0.24805319984304763 0.9272230739920416 -0.24736856459674822 0.9274963076431069 -0.24625079056966281 C 0.9305371343281185 -0.23379520271376117 0.9229503217129331 -0.22122150744208993 0.910513463084641 -0.21810496396826468 C 0.9032050849769561 -0.21628746831318468 0.8954733238226414 -0.2174697443170912 0.8890420383171315 -0.22138819398089177 C 0.8825480637315646 -0.2253073061543532 0.877893141234227 -0.23166287883339026 0.8761160067331719 -0.23903667969260264 C 0.8715104895647744 -0.2578815204500105 0.8830332776364878 -0.27696923027684556 0.9017791717359809 -0.28159273774668214 C 0.9128984192989231 -0.2843711034706921 0.9246674809363677 -0.2825726923449262 0.9344495591493008 -0.276600429097345 C 0.9425235853372975 -0.27173373765959075 0.9487773638582284 -0.2643518141502959 0.9522509624232437 -0.25558775701653125 C 0.9557281315964548 -0.264357468806063 0.9619885430602222 -0.2717429214011283 0.9700703559986255 -0.2766094242480645 C 0.9798499092452465 -0.28257084542765754 0.9916101891113884 -0.284365664999515 1.0027227531105063 -0.28159273774668214 C 1.021477642360719 -0.27696923027684556 1.0329914352817129 -0.2578815204500105 1.0283949132640349 -0.23903667969260262 C 1.026614684191177 -0.2316617773763685 1.0219565778653934 -0.2253062804283938 1.015459886529356 -0.2213881939808918 C 1.01104958097749 -0.21869593279001237 1.0059828945564242 -0.21727053820718184 1.0008157811579668 -0.21726841495134863" fill="#adc2b7" transform="matrix(1,0,0,1,0,0)" fill-rule="nonzero"></path></g><g clip-path="url(&quot;#aa5785856-aadb-4fb6-bf02-01ee3b187ff50e31347f-e393-4e2c-a687-57a6addead7c&quot;)"><path d=" M 0.9520980448610117 -0.05735262545960784 L 0.9520980448610117 -0.06152637539346811 C 0.9956705549463977 -0.06152637539346811 1.0184732620203971 -0.09250567447151711 1.0184732620203971 -0.12310717721934603 C 1.0184732620203971 -0.14798776410955614 1.0037392051418128 -0.15996930486796532 0.9881416137941541 -0.17266146253321712 C 0.9737043968893142 -0.18440013422219909 0.9577110189099962 -0.19741611731335384 0.9520980448610117 -0.2221797672442101 C 0.9464850708120272 -0.19741611731335384 0.9304916928327092 -0.1844001342221991 0.9160544759278693 -0.17266146253321712 C 0.9004568845802104 -0.15996930486796535 0.8857228277016261 -0.14798776410955614 0.8857228277016261 -0.12310717721934603 C 0.8857228277016261 -0.09250567447151711 0.9085165396249061 -0.06152637539346811 0.9520980448610117 -0.06152637539346811 L 0.9520980448610117 -0.05735262545960784 C 0.9057820138061701 -0.05735262545960784 0.8815490777677659 -0.09042779465530651 0.8815490777677659 -0.12310717721934603 C 0.8815490777677659 -0.14997569241857145 0.8970297321560708 -0.16256890342590843 0.913418896767048 -0.1758997167922466 C 0.9314091982061008 -0.19052583186219657 0.9500111698940814 -0.20565567537244003 0.9500111698940814 -0.24199608427932678 L 0.9541849198279417 -0.24199608427932678 C 0.9541849198279417 -0.20565567537244003 0.9727868915159225 -0.19052583186219654 0.9907681978042557 -0.1758997167922466 C 1.0071573624152328 -0.16256890342590843 1.0226380168035378 -0.14997569241857142 1.0226380168035378 -0.12310717721934597 C 1.0226380168035378 -0.09042779465530651 0.9984140759158532 -0.05735262545960784 0.9520980448610117 -0.05735262545960784" fill="#adc2b7" transform="matrix(1,0,0,1,0,0)" fill-rule="nonzero"></path></g><g clip-path="url(&quot;#aa5785856-aadb-4fb6-bf02-01ee3b187ff50e31347f-e393-4e2c-a687-57a6addead7c&quot;)"><path d=" M 1.1908743207108405 -0.13381140657558246 C 1.2014285914132055 -0.13380892263331315 1.209986531968896 -0.14236283585912826 1.2099890159898008 -0.15291710656147453 C 1.2099915000107058 -0.16347137726382083 1.2014375868486522 -0.17202931788324302 1.1908833161463244 -0.17203180198278323 C 1.1803290451591955 -0.17203428592511957 1.1717711046035046 -0.1634803726993045 1.1717686205826001 -0.15292610199695822 C 1.1717661365616951 -0.14237183129461192 1.1803200497237487 -0.1338138906751897 1.1908743204260765 -0.1338114065756495 Z" fill="none" transform="matrix(1,0,0,1,0,0)" fill-rule="nonzero" stroke-dasharray="none" stroke-miterlimit="4" stroke-linejoin="round" stroke-linecap="round" stroke-width="0.00674636303964482" stroke="#adc2b7"></path></g><g clip-path="url(&quot;#aa5785856-aadb-4fb6-bf02-01ee3b187ff50e31347f-e393-4e2c-a687-57a6addead7c&quot;)"><path d=" M 0.71413133257594 -0.13381140657558246 C 0.7246856032783048 -0.13380892263331315 0.7332435438339954 -0.14236283585912826 0.7332460278549001 -0.15291710656147453 C 0.733248511875805 -0.16347137726382083 0.7246945987137514 -0.17202931788324302 0.7141403280114237 -0.17203180198278323 C 0.7035860570242948 -0.17203428592511957 0.6950281164686042 -0.1634803726993045 0.6950256324476994 -0.15292610199695822 C 0.6950231484267946 -0.14237183129461192 0.7035770615888481 -0.1338138906751897 0.7141313322911759 -0.1338114065756495 Z" fill="none" transform="matrix(1,0,0,1,0,0)" fill-rule="nonzero" stroke-dasharray="none" stroke-miterlimit="4" stroke-linejoin="round" stroke-linecap="round" stroke-width="0.00674636303964482" stroke="#adc2b7"></path></g></g></g><defs><clipPath id="SvgjsClipPath1002"><path d=" M 0.691652450387002 -0.3373266916048679 h 0.5217097476634962 v 0.27997406614526005 h -0.5217097476634962 Z"></path></clipPath><clipPath id="aa5785856-aadb-4fb6-bf02-01ee3b187ff50e31347f-e393-4e2c-a687-57a6addead7c"><path d=" M 0.6916434557771239 -0.05735262545960784 L 1.2133621975096567 -0.05735262545960784 L 1.2133621975096567 -0.3373266916048679 L 0.6916434557771239 -0.3373266916048679 Z"></path></clipPath></defs></svg>