<svg xmlns="http://www.w3.org/2000/svg" version="1.1" xmlns:xlink="http://www.w3.org/1999/xlink" xmlns:svgjs="http://svgjs.dev/svgjs" viewBox="0 0 8.847306298638724 2.8391006025213006"><g transform="matrix(1,0,0,1,2.767314929881771,0.4513275739879231)"><rect width="8.847306298638724" height="8.847306298638724" x="-2.7673149298817714" y="-3.4554304220466348" fill="#ffffff"></rect><g><path d=" M 0.801 0.05249999999999977 L 0.801 0.28649999999999987 L 0.378 0.28649999999999987 L 0.378 0.4724999999999998 L 0.6900000000000001 0.4724999999999998 L 0.6900000000000001 0.6959999999999998 L 0.378 0.6959999999999998 L 0.378 1.1099999999999999 L 0.084 1.1099999999999999 L 0.084 0.05249999999999977 L 0.801 0.05249999999999977 M 0.9397111816406251 0.4604999999999999 Q 0.986961181640625 0.3629999999999999 1.068711181640625 0.3104999999999999 Q 1.150461181640625 0.2579999999999999 1.250961181640625 0.2579999999999999 Q 1.337961181640625 0.2579999999999999 1.4009611816406249 0.29249999999999987 Q 1.463961181640625 0.32699999999999985 1.498461181640625 0.38549999999999984 L 1.498461181640625 0.26849999999999985 L 1.792461181640625 0.26849999999999985 L 1.792461181640625 1.1099999999999999 L 1.498461181640625 1.1099999999999999 L 1.498461181640625 0.9929999999999999 Q 1.463961181640625 1.0514999999999999 1.400211181640625 1.0859999999999999 Q 1.336461181640625 1.1204999999999998 1.250961181640625 1.1204999999999998 Q 1.150461181640625 1.1204999999999998 1.068711181640625 1.0679999999999998 Q 0.986961181640625 1.0154999999999998 0.9397111816406251 0.9172499999999999 Q 0.892461181640625 0.819 0.892461181640625 0.6884999999999999 Q 0.892461181640625 0.5579999999999998 0.9397111816406251 0.4604999999999999 M 1.4542111816406251 0.5609999999999998 Q 1.409961181640625 0.5144999999999998 1.345461181640625 0.5144999999999998 Q 1.279461181640625 0.5144999999999998 1.235961181640625 0.5602499999999999 Q 1.192461181640625 0.6059999999999999 1.192461181640625 0.6884999999999999 Q 1.192461181640625 0.7694999999999999 1.235961181640625 0.8167499999999999 Q 1.279461181640625 0.8639999999999999 1.345461181640625 0.8639999999999999 Q 1.409961181640625 0.8639999999999999 1.4542111816406251 0.8174999999999999 Q 1.498461181640625 0.7709999999999999 1.498461181640625 0.6884999999999999 Q 1.498461181640625 0.6074999999999998 1.4542111816406251 0.5609999999999998 M 2.3894501953125005 0.3029999999999998 Q 2.4599501953125005 0.2609999999999999 2.5409501953125 0.2609999999999999 L 2.5409501953125 0.5744999999999999 L 2.4584501953125004 0.5744999999999999 Q 2.3624501953125003 0.5744999999999999 2.3159501953125003 0.6119999999999999 Q 2.2694501953125004 0.6494999999999999 2.2694501953125004 0.7424999999999999 L 2.2694501953125004 1.1099999999999999 L 1.9754501953125003 1.1099999999999999 L 1.9754501953125003 0.26849999999999985 L 2.2694501953125004 0.26849999999999985 L 2.2694501953125004 0.4169999999999998 Q 2.3189501953125005 0.34499999999999986 2.3894501953125005 0.3029999999999998 M 3.4432324218750003 0.3577499999999999 Q 3.5279824218750004 0.4544999999999999 3.5279824218750004 0.6194999999999999 L 3.5279824218750004 1.1099999999999999 L 3.2339824218750004 1.1099999999999999 L 3.2339824218750004 0.6584999999999999 Q 3.2339824218750004 0.5864999999999999 3.1964824218750003 0.5452499999999999 Q 3.1589824218750002 0.5039999999999999 3.0959824218750005 0.5039999999999999 Q 3.029982421875 0.5039999999999999 2.9924824218750006 0.5452499999999999 Q 2.9549824218750005 0.5864999999999999 2.9549824218750005 0.6584999999999999 L 2.9549824218750005 1.1099999999999999 L 2.6609824218750004 1.1099999999999999 L 2.6609824218750004 -2.220446049250313e-16 L 2.9549824218750005 -2.220446049250313e-16 L 2.9549824218750005 0.38849999999999985 Q 2.993982421875 0.3314999999999999 3.0607324218750005 0.2962499999999999 Q 3.1274824218750004 0.2609999999999999 3.2144824218750006 0.2609999999999999 Q 3.3584824218750002 0.2609999999999999 3.4432324218750003 0.3577499999999999 M 3.7041936035156255 0.4604999999999999 Q 3.7514436035156256 0.3629999999999999 3.8331936035156255 0.3104999999999999 Q 3.9149436035156255 0.2579999999999999 4.015443603515625 0.2579999999999999 Q 4.102443603515625 0.2579999999999999 4.165443603515626 0.29249999999999987 Q 4.228443603515625 0.32699999999999985 4.262943603515626 0.38549999999999984 L 4.262943603515626 0.26849999999999985 L 4.556943603515625 0.26849999999999985 L 4.556943603515625 1.1099999999999999 L 4.262943603515626 1.1099999999999999 L 4.262943603515626 0.9929999999999999 Q 4.228443603515625 1.0514999999999999 4.164693603515626 1.0859999999999999 Q 4.100943603515626 1.1204999999999998 4.015443603515625 1.1204999999999998 Q 3.9149436035156255 1.1204999999999998 3.8331936035156255 1.0679999999999998 Q 3.7514436035156256 1.0154999999999998 3.7041936035156255 0.9172499999999999 Q 3.6569436035156255 0.819 3.6569436035156255 0.6884999999999999 Q 3.6569436035156255 0.5579999999999998 3.7041936035156255 0.4604999999999999 M 4.218693603515625 0.5609999999999998 Q 4.174443603515625 0.5144999999999998 4.109943603515625 0.5144999999999998 Q 4.0439436035156255 0.5144999999999998 4.000443603515626 0.5602499999999999 Q 3.9569436035156254 0.6059999999999999 3.9569436035156254 0.6884999999999999 Q 3.9569436035156254 0.7694999999999999 4.000443603515626 0.8167499999999999 Q 4.0439436035156255 0.8639999999999999 4.109943603515625 0.8639999999999999 Q 4.174443603515625 0.8639999999999999 4.218693603515625 0.8174999999999999 Q 4.262943603515626 0.7709999999999999 4.262943603515626 0.6884999999999999 Q 4.262943603515626 0.6074999999999998 4.218693603515625 0.5609999999999998 M 4.739182617187501 0.4604999999999999 Q 4.786432617187501 0.3629999999999999 4.868932617187501 0.3104999999999999 Q 4.951432617187501 0.2579999999999999 5.051932617187501 0.2579999999999999 Q 5.132932617187501 0.2579999999999999 5.196682617187501 0.29174999999999984 Q 5.260432617187501 0.3254999999999999 5.296432617187501 0.3839999999999999 L 5.296432617187501 -2.220446049250313e-16 L 5.591932617187501 -2.220446049250313e-16 L 5.591932617187501 1.1099999999999999 L 5.296432617187501 1.1099999999999999 L 5.296432617187501 0.9929999999999999 Q 5.261932617187501 1.0514999999999999 5.198932617187501 1.0859999999999999 Q 5.1359326171875015 1.1204999999999998 5.050432617187501 1.1204999999999998 Q 4.949932617187501 1.1204999999999998 4.868182617187501 1.0679999999999998 Q 4.786432617187501 1.0154999999999998 4.739182617187501 0.9172499999999999 Q 4.691932617187501 0.819 4.691932617187501 0.6884999999999999 Q 4.691932617187501 0.5579999999999998 4.739182617187501 0.4604999999999999 M 5.253682617187501 0.5609999999999998 Q 5.209432617187501 0.5144999999999998 5.144932617187501 0.5144999999999998 Q 5.078932617187501 0.5144999999999998 5.035432617187501 0.5602499999999999 Q 4.991932617187501 0.6059999999999999 4.991932617187501 0.6884999999999999 Q 4.991932617187501 0.7694999999999999 5.035432617187501 0.8167499999999999 Q 5.078932617187501 0.8639999999999999 5.144932617187501 0.8639999999999999 Q 5.209432617187501 0.8639999999999999 5.253682617187501 0.8174999999999999 Q 5.297932617187501 0.7709999999999999 5.297932617187501 0.6884999999999999 Q 5.297932617187501 0.6074999999999998 5.253682617187501 0.5609999999999998" fill="#212245" fill-rule="nonzero"></path></g><g><path d=" M 0.3334090909090909 1.4598545454545453 L 0.3334090909090909 1.4993999999999998 L 0.2011363636363636 1.4993999999999998 L 0.2011363636363636 1.9364454545454544 L 0.15340909090909088 1.9364454545454544 L 0.15340909090909088 1.4993999999999998 L 0.020454545454545454 1.4993999999999998 L 0.020454545454545454 1.4598545454545453 L 0.3334090909090909 1.4598545454545453 M 0.41694513494318175 1.6490590909090908 Q 0.43978604403409083 1.6057636363636363 0.48035422585227266 1.5822409090909089 Q 0.5209224076704545 1.5587181818181817 0.5720587713068181 1.5587181818181817 Q 0.6252405894886364 1.5587181818181817 0.6637633167613636 1.583263636363636 Q 0.7022860440340908 1.6078090909090907 0.7193314985795454 1.645990909090909 L 0.7193314985795454 1.564172727272727 L 0.7670587713068181 1.564172727272727 L 0.7670587713068181 1.9364454545454544 L 0.7193314985795454 1.9364454545454544 L 0.7193314985795454 1.8539454545454543 Q 0.7016042258522727 1.8921272727272727 0.6630814985795455 1.917013636363636 Q 0.6245587713068181 1.9418999999999997 0.5713769531249999 1.9418999999999997 Q 0.5209224076704545 1.9418999999999997 0.48035422585227266 1.9180363636363635 Q 0.43978604403409083 1.8941727272727271 0.41694513494318175 1.8505363636363634 Q 0.39410422585227267 1.8068999999999997 0.39410422585227267 1.7496272727272726 Q 0.39410422585227267 1.6923545454545452 0.41694513494318175 1.6490590909090908 M 0.7009224076704546 1.6712181818181817 Q 0.6825133167613635 1.6371272727272725 0.6508087713068181 1.6187181818181817 Q 0.6191042258522726 1.6003090909090907 0.5809224076704544 1.6003090909090907 Q 0.5413769531249999 1.6003090909090907 0.5100133167613636 1.6180363636363635 Q 0.4786496803977272 1.6357636363636363 0.4605814985795454 1.6695136363636363 Q 0.4425133167613636 1.7032636363636362 0.4425133167613636 1.7496272727272726 Q 0.4425133167613636 1.7953090909090907 0.4605814985795454 1.829740909090909 Q 0.4786496803977272 1.864172727272727 0.5100133167613636 1.882240909090909 Q 0.5413769531249999 1.9003090909090907 0.5809224076704544 1.9003090909090907 Q 0.6191042258522726 1.9003090909090907 0.6508087713068181 1.8819 Q 0.6825133167613635 1.8634909090909089 0.7009224076704546 1.8294 Q 0.7193314985795454 1.7953090909090907 0.7193314985795454 1.7503090909090908 Q 0.7193314985795454 1.7053090909090907 0.7009224076704546 1.6712181818181817 M 1.1665959028764203 1.5986045454545452 Q 1.2088686301491476 1.6398545454545452 1.2088686301491476 1.718263636363636 L 1.2088686301491476 1.9364454545454544 L 1.161823175603693 1.9364454545454544 L 1.161823175603693 1.7237181818181817 Q 1.161823175603693 1.6630363636363634 1.131482266512784 1.630990909090909 Q 1.101141357421875 1.5989454545454544 1.048641357421875 1.5989454545454544 Q 0.9947777210582386 1.5989454545454544 0.962732266512784 1.6330363636363634 Q 0.9306868119673295 1.6671272727272726 0.9306868119673295 1.7332636363636362 L 0.9306868119673295 1.9364454545454544 L 0.8829595392400568 1.9364454545454544 L 0.8829595392400568 1.564172727272727 L 0.9306868119673295 1.564172727272727 L 0.9306868119673295 1.627581818181818 Q 0.9484140846946022 1.5934909090909088 0.981823175603693 1.575422727272727 Q 1.015232266512784 1.5573545454545452 1.0575049937855112 1.5573545454545452 Q 1.124323175603693 1.5573545454545452 1.1665959028764203 1.5986045454545452 M 1.453638361150568 1.890081818181818 L 1.5790929066051136 1.564172727272727 L 1.6295474520596591 1.564172727272727 L 1.4802292702414772 1.9364454545454544 L 1.426365633877841 1.9364454545454544 L 1.277047452059659 1.564172727272727 L 1.3281838156960226 1.564172727272727 L 1.453638361150568 1.890081818181818 M 2.036590909090909 1.7687181818181816 L 1.7277272727272726 1.7687181818181816 Q 1.7297727272727272 1.8109909090909089 1.748181818181818 1.840990909090909 Q 1.766590909090909 1.870990909090909 1.796590909090909 1.886331818181818 Q 1.826590909090909 1.9016727272727272 1.8620454545454543 1.9016727272727272 Q 1.9084090909090907 1.9016727272727272 1.9401136363636362 1.879172727272727 Q 1.9718181818181817 1.856672727272727 1.9820454545454544 1.818490909090909 L 2.0324999999999998 1.818490909090909 Q 2.018863636363636 1.8730363636363634 1.9742045454545454 1.9074681818181816 Q 1.9295454545454545 1.9418999999999997 1.8620454545454543 1.9418999999999997 Q 1.8095454545454543 1.9418999999999997 1.7679545454545453 1.9183772727272725 Q 1.7263636363636363 1.8948545454545453 1.702840909090909 1.8515590909090907 Q 1.6793181818181817 1.8082636363636362 1.6793181818181817 1.7503090909090908 Q 1.6793181818181817 1.6923545454545452 1.7025 1.6487181818181815 Q 1.725681818181818 1.605081818181818 1.767272727272727 1.5818999999999999 Q 1.8088636363636363 1.5587181818181817 1.8620454545454543 1.5587181818181817 Q 1.9152272727272726 1.5587181818181817 1.9551136363636363 1.5818999999999999 Q 1.9949999999999999 1.605081818181818 2.016477272727273 1.6442863636363634 Q 2.0379545454545456 1.683490909090909 2.0379545454545456 1.7312181818181815 Q 2.0379545454545456 1.7557636363636362 2.036590909090909 1.7687181818181816 M 1.972840909090909 1.6589454545454543 Q 1.9554545454545453 1.6296272727272725 1.9254545454545453 1.6146272727272726 Q 1.8954545454545453 1.5996272727272727 1.8599999999999999 1.5996272727272727 Q 1.8068181818181817 1.5996272727272727 1.7693181818181818 1.6337181818181816 Q 1.7318181818181817 1.6678090909090908 1.7277272727272726 1.7298545454545453 L 1.9895454545454543 1.7298545454545453 Q 1.9902272727272727 1.688263636363636 1.972840909090909 1.6589454545454543 M 2.4675063254616476 1.7687181818181816 L 2.158642689098011 1.7687181818181816 Q 2.1606881436434655 1.8109909090909089 2.1790972345525566 1.840990909090909 Q 2.1975063254616476 1.870990909090909 2.2275063254616474 1.886331818181818 Q 2.2575063254616476 1.9016727272727272 2.292960870916193 1.9016727272727272 Q 2.339324507279829 1.9016727272727272 2.3710290527343747 1.879172727272727 Q 2.40273359818892 1.856672727272727 2.412960870916193 1.818490909090909 L 2.4634154163707382 1.818490909090909 Q 2.4497790527343746 1.8730363636363634 2.405119961825284 1.9074681818181816 Q 2.360460870916193 1.9418999999999997 2.292960870916193 1.9418999999999997 Q 2.240460870916193 1.9418999999999997 2.198869961825284 1.9183772727272725 Q 2.1572790527343746 1.8948545454545453 2.1337563254616474 1.8515590909090907 Q 2.11023359818892 1.8082636363636362 2.11023359818892 1.7503090909090908 Q 2.11023359818892 1.6923545454545452 2.133415416370738 1.6487181818181815 Q 2.1565972345525566 1.605081818181818 2.1981881436434656 1.5818999999999999 Q 2.2397790527343746 1.5587181818181817 2.292960870916193 1.5587181818181817 Q 2.346142689098011 1.5587181818181817 2.386029052734375 1.5818999999999999 Q 2.4259154163707386 1.605081818181818 2.4473926890980113 1.6442863636363634 Q 2.468869961825284 1.683490909090909 2.468869961825284 1.7312181818181815 Q 2.468869961825284 1.7557636363636362 2.4675063254616476 1.7687181818181816 M 2.4037563254616474 1.6589454545454543 Q 2.3863699618252836 1.6296272727272725 2.356369961825284 1.6146272727272726 Q 2.326369961825284 1.5996272727272727 2.2909154163707384 1.5996272727272727 Q 2.23773359818892 1.5996272727272727 2.20023359818892 1.6337181818181816 Q 2.1627335981889204 1.6678090909090908 2.158642689098011 1.7298545454545453 L 2.4204608709161928 1.7298545454545453 Q 2.4211426890980112 1.688263636363636 2.4037563254616474 1.6589454545454543 M 2.658762650923295 1.5764454545454543 Q 2.6911490145596586 1.5573545454545452 2.7381944691051134 1.5573545454545452 L 2.7381944691051134 1.6071272727272725 L 2.7252399236505678 1.6071272727272725 Q 2.673421741832386 1.6071272727272725 2.6420581054687498 1.635081818181818 Q 2.610694469105113 1.6630363636363634 2.610694469105113 1.7284909090909089 L 2.610694469105113 1.9364454545454544 L 2.5629671963778407 1.9364454545454544 L 2.5629671963778407 1.564172727272727 L 2.610694469105113 1.564172727272727 L 2.610694469105113 1.6303090909090907 Q 2.6263762872869316 1.5955363636363635 2.658762650923295 1.5764454545454543" fill="#64c6c4" fill-rule="nonzero"></path></g><g clip-path="url(&quot;#SvgjsClipPath1002&quot;)"><g clip-path="url(&quot;#SvgjsClipPath1000a5bbd65e-313d-483a-b395-8cca99a41304&quot;)"><path d=" M -2.3632451919841926 1.4693723359164004 L -2.3632451919841926 0.6166340126647104 C -2.3630560064596122 0.5251391549821144 -2.288982223011918 0.45098837175952655 -2.1974876112672534 0.45070412677031074 L -2.1974876112672534 1.4700615566262423 C -2.196732036112178 1.662164313865401 -2.041189299681376 1.8177070502961858 -1.849086542442234 1.818462625451239 L -1.640941888070048 1.818462625451239 C -1.5494864477346668 1.8188408875573718 -1.4754675506414214 1.892936727371088 -1.4751843073531115 1.9843925113456402 L -1.8490865424422536 1.9843925113456402 C -2.13303041224898 1.9835389354886224 -2.3628669959787842 1.7533172368397012 -2.3632451919841926 1.4693723359164004 Z" fill="#64c6c4" transform="matrix(1,0,0,1,0,0)" fill-rule="evenodd"></path></g><g clip-path="url(&quot;#SvgjsClipPath1000a5bbd65e-313d-483a-b395-8cca99a41304&quot;)"><path d=" M -2.3632451919841926 1.2207359648409941 L -2.3632451919841926 0.6166340126647104 C -2.3630560064596122 0.5251391549821144 -2.288982223011918 0.45098837175952655 -2.1974876112672534 0.45070412677031074 L -2.1974876112672534 1.2214251855508347 C -2.1966383855550426 1.413488922094345 -2.041150278985789 1.56897702866361 -1.8490865424422678 1.5698262543758346 L -1.2692796202878918 1.5698262543758346 C -1.1778520446788558 1.57011004610556 -1.103805831300678 1.6441562594837378 -1.1035220395709526 1.7355838350927724 L -1.8490865424422536 1.7355838350927724 C -2.13300256088809 1.7348249510099052 -2.3628666379741547 1.5046527451341816 -2.3632451919841926 1.2207359648409941 Z" fill="#64c6c4" transform="matrix(1,0,0,1,0,0)" fill-rule="evenodd"></path></g><g clip-path="url(&quot;#SvgjsClipPath1000a5bbd65e-313d-483a-b395-8cca99a41304&quot;)"><path d=" M -2.3632451919841926 0.9719272885881264 L -2.3632451919841926 0.6166340126647104 C -2.3630560064596122 0.5251391549821144 -2.288982223011918 0.45098837175952655 -2.1974876112672534 0.45070412677031074 L -2.1974876112672534 0.972616509297967 C -2.1967326914925507 1.1647475315500966 -2.0412171679487034 1.320339966826653 -1.8490865424422482 1.3211898833004256 L -0.8974450473282738 1.3211898833004256 C -0.8060174717192392 1.3214736750301528 -0.7319712583410629 1.3955198884083306 -0.7316874666113375 1.4869474640173665 L -1.8490865424422536 1.4869474640173665 C -2.13303041224898 1.4860938881603518 -2.3628669959787842 1.255872189511427 -2.3632451919841926 0.9719272885881264 Z" fill="#64c6c4" transform="matrix(1,0,0,1,0,0)" fill-rule="evenodd"></path></g><g clip-path="url(&quot;#SvgjsClipPath1000a5bbd65e-313d-483a-b395-8cca99a41304&quot;)"><path d=" M -0.3999999999999986 0.46690081345159296 L -0.3999999999999986 1.320500662590585 C -0.4001895689975872 1.4119674094647823 -0.4742908338427323 1.48606867430993 -0.5657575807169322 1.4862582433075247 L -0.5657575807169322 0.46690081345159296 C -0.5664193296571995 0.27475898923357883 -0.7220168253239065 0.11916149356686337 -0.9141586495419305 0.11849974462659604 L -1.1226479142690615 0.11849974462659604 C -1.214075489878099 0.11821595289686929 -1.2881217032562753 0.04416973951869141 -1.2884054949860022 -0.04725783609034311 L -0.914675565074319 -0.04725783609034311 C -0.6308652056461086 -0.04669016811391186 -0.40085285638966783 0.18309116773517137 -0.3999999999999986 0.46690081345159296 Z" fill="#64c6c4" transform="matrix(1,0,0,1,0,0)" fill-rule="evenodd"></path></g><g clip-path="url(&quot;#SvgjsClipPath1000a5bbd65e-313d-483a-b395-8cca99a41304&quot;)"><path d=" M -0.3999999999999986 0.7157094897044595 L -0.3999999999999986 1.320500662590585 C -0.4001895689975872 1.411967409464781 -0.4742908338427323 1.4860686743099287 -0.5657575807169322 1.4862582433075229 L -0.5657575807169322 0.7157094897044595 C -0.5664187521671755 0.5235394467078548 -0.7219889569430913 0.3678923031560893 -0.9141586495419403 0.3671361157019992 L -1.493965571696298 0.3671361157019992 C -1.585393147305334 0.36685232397227385 -1.6594393606835132 0.292806110594096 -1.6597231524132372 0.20137853498506006 L -0.9141586495419376 0.20137853498506006 C -0.6304831196817762 0.20223054585816413 -0.4007569612283921 0.43203369028958455 -0.3999999999999986 0.7157094897044595 Z" fill="#64c6c4" transform="matrix(1,0,0,1,0,0)" fill-rule="evenodd"></path></g><g clip-path="url(&quot;#SvgjsClipPath1000a5bbd65e-313d-483a-b395-8cca99a41304&quot;)"><path d=" M -0.3999999999999986 0.9643458607798668 L -0.3999999999999986 1.320500662590585 C -0.4001895689975872 1.4119674094647823 -0.4742908338427323 1.48606867430993 -0.5657575807169322 1.4862582433075247 L -0.5657575807169322 0.9643458607798682 C -0.5668908580037162 0.7724454058533213 -0.7224282829303974 0.6172924036279006 -0.9143309547194063 0.6166340126647104 L -1.8659724498333752 0.6166340126647104 C -1.9574670615780427 0.6163497676754918 -2.0315408450257366 0.5421989844529039 -2.031730030550317 0.45070412677031074 L -0.9143309547193965 0.45070412677031074 C -0.6308950810432217 0.4515534759136873 -0.4012294164270558 0.680911380845275 -0.3999999999999986 0.9643458607798668 Z" fill="#64c6c4" transform="matrix(1,0,0,1,0,0)" fill-rule="evenodd"></path></g></g></g><defs><clipPath id="SvgjsClipPath1002"><path d=" M -2.3632451919841926 -0.04725783609034451 h 1.9632451919841927 v 2.0309611267261434 h -1.9632451919841927 Z"></path></clipPath><clipPath id="SvgjsClipPath1000a5bbd65e-313d-483a-b395-8cca99a41304"><path d=" M -2.3632451919841926 -0.04725783609034451 L -0.3999999999999999 -0.04725783609034451 L -0.3999999999999999 1.9837032906357988 L -2.3632451919841926 1.9837032906357988 Z"></path></clipPath></defs></svg>